# xmcd
#
# Track frame offsets:
#	150
#	14095
#	27310
#	46075
#	73411
#	97650
#	119032
#	136256
#	153746
#	169833
#
# Disc length: 2496 seconds
#
# Revision: 1
# Processed by: cddbd v1.5.1PL0 Copyright (c) Steve Scherf et al.
# Submitted via: audiograbber 1.83.01
#
DISCID=8a09be0a
DTITLE=Varios - Taller Experimental De Musica Popular
DYEAR=1997
DGENRE=
TTITLE0=Iretai - Vientos De Otonio
TTITLE1=Nina Fuslon Band - Nostalgias
TTITLE2=Voz Latinoamericana - Querido Pais
TTITLE3=Negro Y Blanco - La Maza
TTITLE4=Nina Fusion Band - Tusuy
TTITLE5=Negro Y Blanco - Solo El Amor
TTITLE6=Voz Latinoamericana - Ambiciosa Palomita
TTITLE7=Iretai - Redundar
TTITLE8=Nina Fusion Band - Final Del Viaje
TTITLE9=Iretai - Uma Casa Para Ficar
EXTD=
EXTT0=
EXTT1=
EXTT2=
EXTT3=
EXTT4=
EXTT5=
EXTT6=
EXTT7=
EXTT8=
EXTT9=
PLAYORDER=
